<mxfile host="app.diagrams.net" modified="2023-03-29T09:46:10.216Z" agent="Mozilla/5.0 (X11; Linux x86_64) AppleWebKit/537.36 (KHTML, like Gecko) Chrome/108.0.0.0 Safari/537.36" etag="1MgVWJedXYwkR0I5S5cL" version="21.1.1" type="github">
  <diagram name="Page-1" id="6Cp6kL8NRnwYzrqeiL2H">
    <mxGraphModel dx="1133" dy="1842" grid="1" gridSize="10" guides="1" tooltips="1" connect="1" arrows="1" fold="1" page="1" pageScale="1" pageWidth="827" pageHeight="1169" background="none" math="0" shadow="1">
      <root>
        <mxCell id="0" />
        <mxCell id="1" parent="0" />
        <mxCell id="Low464aujm_Ow84c1Fgc-13" value="" style="edgeStyle=orthogonalEdgeStyle;rounded=0;orthogonalLoop=1;jettySize=auto;html=1;entryX=0.5;entryY=0;entryDx=0;entryDy=0;fillColor=#dae8fc;strokeColor=#6c8ebf;" parent="1" source="Low464aujm_Ow84c1Fgc-1" target="Low464aujm_Ow84c1Fgc-11" edge="1">
          <mxGeometry relative="1" as="geometry" />
        </mxCell>
        <mxCell id="Low464aujm_Ow84c1Fgc-25" value="" style="edgeStyle=orthogonalEdgeStyle;rounded=0;orthogonalLoop=1;jettySize=auto;html=1;fillColor=#dae8fc;strokeColor=#6c8ebf;" parent="1" source="Low464aujm_Ow84c1Fgc-1" target="Low464aujm_Ow84c1Fgc-24" edge="1">
          <mxGeometry relative="1" as="geometry" />
        </mxCell>
        <mxCell id="Low464aujm_Ow84c1Fgc-1" value="Patient" style="rounded=0;whiteSpace=wrap;html=1;fillColor=#dae8fc;strokeColor=#6c8ebf;" parent="1" vertex="1">
          <mxGeometry x="125" y="-723" width="140" height="40" as="geometry" />
        </mxCell>
        <mxCell id="Low464aujm_Ow84c1Fgc-2" value="" style="endArrow=none;html=1;rounded=0;entryX=0.5;entryY=1;entryDx=0;entryDy=0;exitX=0.5;exitY=0.075;exitDx=0;exitDy=0;exitPerimeter=0;fillColor=#dae8fc;strokeColor=#6c8ebf;" parent="1" source="Low464aujm_Ow84c1Fgc-1" target="Low464aujm_Ow84c1Fgc-4" edge="1">
          <mxGeometry width="50" height="50" relative="1" as="geometry">
            <mxPoint x="190" y="-730" as="sourcePoint" />
            <mxPoint x="195" y="-833" as="targetPoint" />
          </mxGeometry>
        </mxCell>
        <mxCell id="Low464aujm_Ow84c1Fgc-4" value="PNAME" style="ellipse;whiteSpace=wrap;html=1;fillColor=#dae8fc;strokeColor=#6c8ebf;" parent="1" vertex="1">
          <mxGeometry x="135" y="-873" width="120" height="44" as="geometry" />
        </mxCell>
        <mxCell id="Low464aujm_Ow84c1Fgc-5" value="" style="endArrow=none;html=1;rounded=0;exitX=0.75;exitY=0;exitDx=0;exitDy=0;entryX=0.433;entryY=1.027;entryDx=0;entryDy=0;entryPerimeter=0;fillColor=#dae8fc;strokeColor=#6c8ebf;" parent="1" source="Low464aujm_Ow84c1Fgc-1" target="Low464aujm_Ow84c1Fgc-6" edge="1">
          <mxGeometry width="50" height="50" relative="1" as="geometry">
            <mxPoint x="235" y="-723" as="sourcePoint" />
            <mxPoint x="325" y="-813" as="targetPoint" />
            <Array as="points">
              <mxPoint x="255" y="-743" />
            </Array>
          </mxGeometry>
        </mxCell>
        <mxCell id="Low464aujm_Ow84c1Fgc-6" value="&lt;u&gt;Pat_id&lt;/u&gt;" style="ellipse;whiteSpace=wrap;html=1;fillColor=#dae8fc;strokeColor=#6c8ebf;" parent="1" vertex="1">
          <mxGeometry x="275" y="-853" width="120" height="44" as="geometry" />
        </mxCell>
        <mxCell id="Low464aujm_Ow84c1Fgc-9" value="" style="endArrow=none;html=1;rounded=0;exitX=0.433;exitY=1.008;exitDx=0;exitDy=0;exitPerimeter=0;entryX=0.294;entryY=0.025;entryDx=0;entryDy=0;entryPerimeter=0;fillColor=#dae8fc;strokeColor=#6c8ebf;" parent="1" source="Low464aujm_Ow84c1Fgc-10" target="Low464aujm_Ow84c1Fgc-1" edge="1">
          <mxGeometry width="50" height="50" relative="1" as="geometry">
            <mxPoint x="65" y="-813" as="sourcePoint" />
            <mxPoint x="165" y="-723" as="targetPoint" />
          </mxGeometry>
        </mxCell>
        <mxCell id="Low464aujm_Ow84c1Fgc-10" value="PADDRESS" style="ellipse;whiteSpace=wrap;html=1;fillColor=#dae8fc;strokeColor=#6c8ebf;" parent="1" vertex="1">
          <mxGeometry x="5" y="-853" width="120" height="44" as="geometry" />
        </mxCell>
        <mxCell id="Low464aujm_Ow84c1Fgc-15" value="" style="edgeStyle=orthogonalEdgeStyle;rounded=0;orthogonalLoop=1;jettySize=auto;html=1;fillColor=#dae8fc;strokeColor=#6c8ebf;" parent="1" source="Low464aujm_Ow84c1Fgc-11" target="Low464aujm_Ow84c1Fgc-14" edge="1">
          <mxGeometry relative="1" as="geometry" />
        </mxCell>
        <mxCell id="Low464aujm_Ow84c1Fgc-11" value="has" style="rhombus;whiteSpace=wrap;html=1;fillColor=#dae8fc;strokeColor=#6c8ebf;" parent="1" vertex="1">
          <mxGeometry x="155" y="-613" width="80" height="80" as="geometry" />
        </mxCell>
        <mxCell id="Low464aujm_Ow84c1Fgc-14" value="Medical Record" style="whiteSpace=wrap;html=1;fillColor=#dae8fc;strokeColor=#6c8ebf;" parent="1" vertex="1">
          <mxGeometry x="132.5" y="-434.5" width="125" height="43" as="geometry" />
        </mxCell>
        <mxCell id="Low464aujm_Ow84c1Fgc-16" value="" style="endArrow=none;html=1;rounded=0;exitX=0.426;exitY=1.008;exitDx=0;exitDy=0;exitPerimeter=0;entryX=0.25;entryY=0;entryDx=0;entryDy=0;fillColor=#dae8fc;strokeColor=#6c8ebf;" parent="1" source="Low464aujm_Ow84c1Fgc-17" target="Low464aujm_Ow84c1Fgc-14" edge="1">
          <mxGeometry width="50" height="50" relative="1" as="geometry">
            <mxPoint x="55" y="-533" as="sourcePoint" />
            <mxPoint x="155" y="-443" as="targetPoint" />
          </mxGeometry>
        </mxCell>
        <mxCell id="Low464aujm_Ow84c1Fgc-17" value="&lt;u&gt;Record_id&lt;/u&gt;" style="ellipse;whiteSpace=wrap;html=1;fillColor=#dae8fc;strokeColor=#6c8ebf;" parent="1" vertex="1">
          <mxGeometry x="5" y="-573" width="120" height="44" as="geometry" />
        </mxCell>
        <mxCell id="Low464aujm_Ow84c1Fgc-18" value="" style="endArrow=none;html=1;rounded=0;exitX=0.426;exitY=0.023;exitDx=0;exitDy=0;exitPerimeter=0;entryX=0.25;entryY=1;entryDx=0;entryDy=0;fillColor=#dae8fc;strokeColor=#6c8ebf;" parent="1" source="Low464aujm_Ow84c1Fgc-19" target="Low464aujm_Ow84c1Fgc-14" edge="1">
          <mxGeometry width="50" height="50" relative="1" as="geometry">
            <mxPoint x="105" y="-333" as="sourcePoint" />
            <mxPoint x="155" y="-383" as="targetPoint" />
          </mxGeometry>
        </mxCell>
        <mxCell id="Low464aujm_Ow84c1Fgc-19" value="Date_of_test" style="ellipse;whiteSpace=wrap;html=1;fillColor=#dae8fc;strokeColor=#6c8ebf;" parent="1" vertex="1">
          <mxGeometry x="45" y="-333" width="120" height="44" as="geometry" />
        </mxCell>
        <mxCell id="Low464aujm_Ow84c1Fgc-20" value="" style="endArrow=none;html=1;rounded=0;entryX=0.392;entryY=0.042;entryDx=0;entryDy=0;entryPerimeter=0;exitX=0.614;exitY=1.003;exitDx=0;exitDy=0;exitPerimeter=0;fillColor=#dae8fc;strokeColor=#6c8ebf;" parent="1" source="Low464aujm_Ow84c1Fgc-14" target="Low464aujm_Ow84c1Fgc-21" edge="1">
          <mxGeometry width="50" height="50" relative="1" as="geometry">
            <mxPoint x="220" y="-380" as="sourcePoint" />
            <mxPoint x="285" y="-333" as="targetPoint" />
          </mxGeometry>
        </mxCell>
        <mxCell id="Low464aujm_Ow84c1Fgc-21" value="Problem" style="ellipse;whiteSpace=wrap;html=1;fillColor=#dae8fc;strokeColor=#6c8ebf;" parent="1" vertex="1">
          <mxGeometry x="235" y="-343" width="120" height="44" as="geometry" />
        </mxCell>
        <mxCell id="Low464aujm_Ow84c1Fgc-22" value="1" style="text;html=1;align=center;verticalAlign=middle;resizable=0;points=[];autosize=1;strokeColor=none;fillColor=none;" parent="1" vertex="1">
          <mxGeometry x="160" y="-638" width="30" height="30" as="geometry" />
        </mxCell>
        <mxCell id="Low464aujm_Ow84c1Fgc-23" value="N" style="text;html=1;align=center;verticalAlign=middle;resizable=0;points=[];autosize=1;strokeColor=none;fillColor=none;" parent="1" vertex="1">
          <mxGeometry x="170" y="-518" width="30" height="30" as="geometry" />
        </mxCell>
        <mxCell id="Low464aujm_Ow84c1Fgc-27" value="" style="edgeStyle=orthogonalEdgeStyle;rounded=0;orthogonalLoop=1;jettySize=auto;html=1;fillColor=#dae8fc;strokeColor=#6c8ebf;" parent="1" source="Low464aujm_Ow84c1Fgc-24" target="Low464aujm_Ow84c1Fgc-26" edge="1">
          <mxGeometry relative="1" as="geometry" />
        </mxCell>
        <mxCell id="Low464aujm_Ow84c1Fgc-24" value="Admitted&lt;br&gt;In" style="rhombus;whiteSpace=wrap;html=1;rounded=0;fillColor=#dae8fc;strokeColor=#6c8ebf;" parent="1" vertex="1">
          <mxGeometry x="375" y="-743" width="80" height="80" as="geometry" />
        </mxCell>
        <mxCell id="Low464aujm_Ow84c1Fgc-29" value="" style="edgeStyle=orthogonalEdgeStyle;rounded=0;orthogonalLoop=1;jettySize=auto;html=1;fillColor=#dae8fc;strokeColor=#6c8ebf;" parent="1" source="Low464aujm_Ow84c1Fgc-26" target="Low464aujm_Ow84c1Fgc-28" edge="1">
          <mxGeometry relative="1" as="geometry" />
        </mxCell>
        <mxCell id="Low464aujm_Ow84c1Fgc-26" value="Hospital" style="whiteSpace=wrap;html=1;rounded=0;fillColor=#dae8fc;strokeColor=#6c8ebf;" parent="1" vertex="1">
          <mxGeometry x="517.5" y="-724.5" width="115" height="43" as="geometry" />
        </mxCell>
        <mxCell id="Low464aujm_Ow84c1Fgc-31" value="" style="edgeStyle=orthogonalEdgeStyle;rounded=0;orthogonalLoop=1;jettySize=auto;html=1;fillColor=#dae8fc;strokeColor=#6c8ebf;" parent="1" source="Low464aujm_Ow84c1Fgc-28" target="Low464aujm_Ow84c1Fgc-30" edge="1">
          <mxGeometry relative="1" as="geometry" />
        </mxCell>
        <mxCell id="Low464aujm_Ow84c1Fgc-28" value="has" style="rhombus;whiteSpace=wrap;html=1;rounded=0;fillColor=#dae8fc;strokeColor=#6c8ebf;" parent="1" vertex="1">
          <mxGeometry x="535" y="-598" width="80" height="80" as="geometry" />
        </mxCell>
        <mxCell id="Low464aujm_Ow84c1Fgc-30" value="Doctor" style="whiteSpace=wrap;html=1;rounded=0;fillColor=#dae8fc;strokeColor=#6c8ebf;" parent="1" vertex="1">
          <mxGeometry x="517.5" y="-436" width="115" height="43" as="geometry" />
        </mxCell>
        <mxCell id="Low464aujm_Ow84c1Fgc-34" value="M" style="text;html=1;align=center;verticalAlign=middle;resizable=0;points=[];autosize=1;strokeColor=none;fillColor=none;" parent="1" vertex="1">
          <mxGeometry x="310" y="-738" width="30" height="30" as="geometry" />
        </mxCell>
        <mxCell id="Low464aujm_Ow84c1Fgc-35" value="1" style="text;html=1;align=center;verticalAlign=middle;resizable=0;points=[];autosize=1;strokeColor=none;fillColor=none;" parent="1" vertex="1">
          <mxGeometry x="460" y="-738" width="30" height="30" as="geometry" />
        </mxCell>
        <mxCell id="Low464aujm_Ow84c1Fgc-38" value="Hosp_name" style="ellipse;whiteSpace=wrap;html=1;fillColor=#dae8fc;strokeColor=#6c8ebf;" parent="1" vertex="1">
          <mxGeometry x="517.5" y="-884.5" width="110" height="34" as="geometry" />
        </mxCell>
        <mxCell id="Low464aujm_Ow84c1Fgc-39" value="haddress" style="ellipse;whiteSpace=wrap;html=1;fillColor=#dae8fc;strokeColor=#6c8ebf;" parent="1" vertex="1">
          <mxGeometry x="660" y="-890" width="120" height="40" as="geometry" />
        </mxCell>
        <mxCell id="Low464aujm_Ow84c1Fgc-40" value="&lt;u&gt;Hosp_id&lt;/u&gt;" style="ellipse;whiteSpace=wrap;html=1;fillColor=#dae8fc;strokeColor=#6c8ebf;" parent="1" vertex="1">
          <mxGeometry x="395" y="-887" width="111" height="39" as="geometry" />
        </mxCell>
        <mxCell id="Low464aujm_Ow84c1Fgc-41" value="Hcity" style="ellipse;whiteSpace=wrap;html=1;fillColor=#dae8fc;strokeColor=#6c8ebf;" parent="1" vertex="1">
          <mxGeometry x="720" y="-728" width="107" height="50" as="geometry" />
        </mxCell>
        <mxCell id="Low464aujm_Ow84c1Fgc-42" value="1" style="text;html=1;align=center;verticalAlign=middle;resizable=0;points=[];autosize=1;strokeColor=none;fillColor=none;" parent="1" vertex="1">
          <mxGeometry x="580" y="-648" width="30" height="30" as="geometry" />
        </mxCell>
        <mxCell id="Low464aujm_Ow84c1Fgc-43" value="N" style="text;html=1;align=center;verticalAlign=middle;resizable=0;points=[];autosize=1;strokeColor=none;fillColor=none;" parent="1" vertex="1">
          <mxGeometry x="585" y="-503" width="30" height="30" as="geometry" />
        </mxCell>
        <mxCell id="Low464aujm_Ow84c1Fgc-44" value="Salary" style="ellipse;whiteSpace=wrap;html=1;fillColor=#dae8fc;strokeColor=#6c8ebf;" parent="1" vertex="1">
          <mxGeometry x="335" y="-518" width="120" height="30" as="geometry" />
        </mxCell>
        <mxCell id="Low464aujm_Ow84c1Fgc-45" value="Qualification" style="ellipse;whiteSpace=wrap;html=1;fillColor=#dae8fc;strokeColor=#6c8ebf;" parent="1" vertex="1">
          <mxGeometry x="330" y="-433" width="120" height="40" as="geometry" />
        </mxCell>
        <mxCell id="Low464aujm_Ow84c1Fgc-46" value="Dname" style="ellipse;whiteSpace=wrap;html=1;fillColor=#dae8fc;strokeColor=#6c8ebf;" parent="1" vertex="1">
          <mxGeometry x="415" y="-343" width="120" height="50" as="geometry" />
        </mxCell>
        <mxCell id="Low464aujm_Ow84c1Fgc-47" value="&lt;u&gt;Doc_id&lt;/u&gt;" style="ellipse;whiteSpace=wrap;html=1;fillColor=#dae8fc;strokeColor=#6c8ebf;" parent="1" vertex="1">
          <mxGeometry x="640" y="-343" width="115" height="43" as="geometry" />
        </mxCell>
        <mxCell id="Low464aujm_Ow84c1Fgc-48" value="" style="endArrow=none;html=1;rounded=0;exitX=0.5;exitY=0;exitDx=0;exitDy=0;entryX=0.5;entryY=1;entryDx=0;entryDy=0;fillColor=#dae8fc;strokeColor=#6c8ebf;" parent="1" source="Low464aujm_Ow84c1Fgc-26" target="Low464aujm_Ow84c1Fgc-38" edge="1">
          <mxGeometry width="50" height="50" relative="1" as="geometry">
            <mxPoint x="585" y="-733" as="sourcePoint" />
            <mxPoint x="575" y="-823" as="targetPoint" />
          </mxGeometry>
        </mxCell>
        <mxCell id="Low464aujm_Ow84c1Fgc-49" value="" style="endArrow=none;html=1;rounded=0;entryX=0.5;entryY=1;entryDx=0;entryDy=0;exitX=0.25;exitY=0;exitDx=0;exitDy=0;fillColor=#dae8fc;strokeColor=#6c8ebf;" parent="1" source="Low464aujm_Ow84c1Fgc-26" target="Low464aujm_Ow84c1Fgc-40" edge="1">
          <mxGeometry width="50" height="50" relative="1" as="geometry">
            <mxPoint x="535" y="-733" as="sourcePoint" />
            <mxPoint x="475" y="-803" as="targetPoint" />
          </mxGeometry>
        </mxCell>
        <mxCell id="Low464aujm_Ow84c1Fgc-52" value="" style="endArrow=none;html=1;rounded=0;entryX=0.5;entryY=1;entryDx=0;entryDy=0;exitX=0.75;exitY=0;exitDx=0;exitDy=0;fillColor=#dae8fc;strokeColor=#6c8ebf;" parent="1" source="Low464aujm_Ow84c1Fgc-26" target="Low464aujm_Ow84c1Fgc-39" edge="1">
          <mxGeometry width="50" height="50" relative="1" as="geometry">
            <mxPoint x="615" y="-733" as="sourcePoint" />
            <mxPoint x="665" y="-783" as="targetPoint" />
          </mxGeometry>
        </mxCell>
        <mxCell id="Low464aujm_Ow84c1Fgc-54" value="" style="endArrow=none;html=1;rounded=0;exitX=1;exitY=0.5;exitDx=0;exitDy=0;entryX=0;entryY=0.5;entryDx=0;entryDy=0;fillColor=#dae8fc;strokeColor=#6c8ebf;" parent="1" source="Low464aujm_Ow84c1Fgc-26" target="Low464aujm_Ow84c1Fgc-41" edge="1">
          <mxGeometry width="50" height="50" relative="1" as="geometry">
            <mxPoint x="665" y="-653" as="sourcePoint" />
            <mxPoint x="715" y="-743" as="targetPoint" />
          </mxGeometry>
        </mxCell>
        <mxCell id="Low464aujm_Ow84c1Fgc-55" value="" style="endArrow=none;html=1;rounded=0;exitX=0.5;exitY=0;exitDx=0;exitDy=0;entryX=0.364;entryY=1.003;entryDx=0;entryDy=0;entryPerimeter=0;fillColor=#dae8fc;strokeColor=#6c8ebf;" parent="1" source="Low464aujm_Ow84c1Fgc-46" target="Low464aujm_Ow84c1Fgc-30" edge="1">
          <mxGeometry width="50" height="50" relative="1" as="geometry">
            <mxPoint x="505" y="-323" as="sourcePoint" />
            <mxPoint x="545" y="-373" as="targetPoint" />
            <Array as="points" />
          </mxGeometry>
        </mxCell>
        <mxCell id="Low464aujm_Ow84c1Fgc-59" value="" style="endArrow=none;html=1;rounded=0;entryX=0.5;entryY=0;entryDx=0;entryDy=0;exitX=0.642;exitY=1.003;exitDx=0;exitDy=0;exitPerimeter=0;fillColor=#dae8fc;strokeColor=#6c8ebf;" parent="1" source="Low464aujm_Ow84c1Fgc-30" target="Low464aujm_Ow84c1Fgc-47" edge="1">
          <mxGeometry width="50" height="50" relative="1" as="geometry">
            <mxPoint x="590" y="-320" as="sourcePoint" />
            <mxPoint x="674" y="-350" as="targetPoint" />
            <Array as="points" />
          </mxGeometry>
        </mxCell>
        <mxCell id="Low464aujm_Ow84c1Fgc-60" value="" style="endArrow=none;html=1;rounded=0;exitX=1;exitY=0.5;exitDx=0;exitDy=0;entryX=0;entryY=0.5;entryDx=0;entryDy=0;fillColor=#dae8fc;strokeColor=#6c8ebf;" parent="1" source="Low464aujm_Ow84c1Fgc-45" target="Low464aujm_Ow84c1Fgc-30" edge="1">
          <mxGeometry width="50" height="50" relative="1" as="geometry">
            <mxPoint x="431" y="-360" as="sourcePoint" />
            <mxPoint x="515" y="-390" as="targetPoint" />
            <Array as="points" />
          </mxGeometry>
        </mxCell>
        <mxCell id="Low464aujm_Ow84c1Fgc-61" value="" style="endArrow=none;html=1;rounded=0;exitX=0.5;exitY=1;exitDx=0;exitDy=0;entryX=0.211;entryY=0.003;entryDx=0;entryDy=0;entryPerimeter=0;fillColor=#dae8fc;strokeColor=#6c8ebf;" parent="1" source="Low464aujm_Ow84c1Fgc-44" target="Low464aujm_Ow84c1Fgc-30" edge="1">
          <mxGeometry width="50" height="50" relative="1" as="geometry">
            <mxPoint x="455" y="-413" as="sourcePoint" />
            <mxPoint x="539" y="-443" as="targetPoint" />
            <Array as="points" />
          </mxGeometry>
        </mxCell>
      </root>
    </mxGraphModel>
  </diagram>
</mxfile>
